<?xml version="1.0" encoding="UTF-8" standalone="no"?>
<svg
   xmlns:dc="http://purl.org/dc/elements/1.1/"
   xmlns:cc="http://creativecommons.org/ns#"
   xmlns:rdf="http://www.w3.org/1999/02/22-rdf-syntax-ns#"
   xmlns:svg="http://www.w3.org/2000/svg"
   xmlns="http://www.w3.org/2000/svg"
   xmlns:sodipodi="http://sodipodi.sourceforge.net/DTD/sodipodi-0.dtd"
   xmlns:inkscape="http://www.inkscape.org/namespaces/inkscape"
   version="1.1"
   id="svg2"
   xml:space="preserve"
   width="602.94666"
   height="184.36"
   viewBox="0 0 602.94666 184.36"
   sodipodi:docname="KIWI_weiß.eps"><metadata
     id="metadata8"><rdf:RDF><cc:Work
         rdf:about=""><dc:format>image/svg+xml</dc:format><dc:type
           rdf:resource="http://purl.org/dc/dcmitype/StillImage" /></cc:Work></rdf:RDF></metadata><defs
     id="defs6" /><sodipodi:namedview
     pagecolor="#ffffff"
     bordercolor="#666666"
     borderopacity="1"
     objecttolerance="10"
     gridtolerance="10"
     guidetolerance="10"
     inkscape:pageopacity="0"
     inkscape:pageshadow="2"
     inkscape:window-width="640"
     inkscape:window-height="480"
     id="namedview4" /><g
     id="g10"
     inkscape:groupmode="layer"
     inkscape:label="ink_ext_XXXXXX"
     transform="matrix(1.3333333,0,0,-1.3333333,0,184.36)"><g
       id="g12"
       transform="scale(0.1)"><path
         d="M 673.645,0.601563 380.844,631.242 V 0.601563 H 0 V 1382.69 H 380.844 V 790.949 L 679.785,1382.69 H 1140.48 L 745.305,717.238 1163.01,0.601563 H 673.645"
         style="fill:#ffffff;fill-opacity:1;fill-rule:nonzero;stroke:none"
         id="path14" /><path
         d="m 1208.03,0.601563 h 380.84 V 1382.6916 h -380.84 z"
         style="fill:#ffffff;fill-opacity:1;fill-rule:nonzero;stroke:none"
         id="path16" /><path
         d="M 3224.84,0.601563 H 2762.1 L 2647.44,518.625 c -22.52,100.332 -38.9,221.137 -53.23,352.18 h -2.05 c -8.2,-120.813 -26.62,-229.325 -51.19,-337.84 L 2420.17,0.601563 H 1988.13 L 1656.43,1382.69 h 403.37 l 126.94,-565.124 c 20.48,-88.043 34.81,-196.566 43,-300.992 h 2.05 c 12.29,100.332 26.62,196.567 51.19,294.856 l 145.38,571.26 h 382.88 l 139.24,-550.792 c 20.48,-79.851 43,-188.371 55.28,-303.039 h 2.05 c 16.38,118.762 34.81,225.239 55.29,321.465 l 114.65,532.366 h 382.89 L 3224.84,0.601563"
         style="fill:#ffffff;fill-opacity:1;fill-rule:nonzero;stroke:none"
         id="path18" /><path
         d="m 3613.7,0.601563 h 380.84 V 1382.6916 H 3613.7 Z"
         style="fill:#ffffff;fill-opacity:1;fill-rule:nonzero;stroke:none"
         id="path20" /><path
         d="m 4141.1,0 h 380.988 V 380.988 H 4141.1 Z"
         style="fill:#ffffff;fill-opacity:1;fill-rule:nonzero;stroke:none"
         id="path22" /></g></g></svg>
