<?xml version="1.0" encoding="UTF-8" standalone="no"?>
<svg
   xmlns:dc="http://purl.org/dc/elements/1.1/"
   xmlns:cc="http://creativecommons.org/ns#"
   xmlns:rdf="http://www.w3.org/1999/02/22-rdf-syntax-ns#"
   xmlns:svg="http://www.w3.org/2000/svg"
   xmlns="http://www.w3.org/2000/svg"
   xmlns:sodipodi="http://sodipodi.sourceforge.net/DTD/sodipodi-0.dtd"
   xmlns:inkscape="http://www.inkscape.org/namespaces/inkscape"
   version="1.1"
   id="svg2"
   xml:space="preserve"
   width="602.94666"
   height="184.36"
   viewBox="0 0 602.94666 184.36"
   sodipodi:docname="KIWI_4c.eps"><metadata
     id="metadata8"><rdf:RDF><cc:Work
         rdf:about=""><dc:format>image/svg+xml</dc:format><dc:type
           rdf:resource="http://purl.org/dc/dcmitype/StillImage" /></cc:Work></rdf:RDF></metadata><defs
     id="defs6" /><sodipodi:namedview
     pagecolor="#ffffff"
     bordercolor="#666666"
     borderopacity="1"
     objecttolerance="10"
     gridtolerance="10"
     guidetolerance="10"
     inkscape:pageopacity="0"
     inkscape:pageshadow="2"
     inkscape:window-width="640"
     inkscape:window-height="480"
     id="namedview4" /><g
     id="g10"
     inkscape:groupmode="layer"
     inkscape:label="ink_ext_XXXXXX"
     transform="matrix(1.3333333,0,0,-1.3333333,0,184.36)"><g
       id="g12"
       transform="scale(0.1)"><path
         d="M 673.645,0.601563 380.844,631.246 V 0.601563 H 0 V 1382.69 H 380.844 V 790.953 L 679.785,1382.69 H 1140.48 L 745.305,717.242 1163,0.601563 H 673.645"
         style="fill:#b6b5b5;fill-opacity:1;fill-rule:nonzero;stroke:none"
         id="path14" /><path
         d="M 1208.02,0.601563 V 1382.69 h 380.85 V 0.601563 h -380.85"
         style="fill:#b6b5b5;fill-opacity:1;fill-rule:nonzero;stroke:none"
         id="path16" /><path
         d="M 3224.84,0.601563 H 2762.09 L 2647.44,518.625 c -22.52,100.336 -38.91,221.137 -53.24,352.18 h -2.05 c -8.19,-120.809 -26.62,-229.325 -51.19,-337.84 L 2420.16,0.601563 H 1988.13 L 1656.43,1382.69 h 403.36 l 126.95,-565.124 c 20.48,-88.039 34.81,-196.566 43,-300.988 h 2.05 c 12.28,100.332 26.61,196.563 51.18,294.852 l 145.38,571.26 h 382.89 l 139.23,-550.792 c 20.48,-79.851 43,-188.367 55.29,-303.035 h 2.05 c 16.37,118.758 34.8,225.235 55.28,321.465 l 114.66,532.362 h 382.89 L 3224.84,0.601563"
         style="fill:#b6b5b5;fill-opacity:1;fill-rule:nonzero;stroke:none"
         id="path18" /><path
         d="M 3613.7,0.601563 V 1382.69 h 380.84 V 0.601563 H 3613.7"
         style="fill:#b6b5b5;fill-opacity:1;fill-rule:nonzero;stroke:none"
         id="path20" /><path
         d="M 4522.08,0 H 4141.1 v 380.988 h 380.98 V 0"
         style="fill:#231f20;fill-opacity:1;fill-rule:nonzero;stroke:none"
         id="path22" /></g></g></svg>
